<?xml version="1.0" encoding="UTF-8"?>
<svg width="80px" height="80px" viewBox="0 0 80 80" version="1.1"
  xmlns="http://www.w3.org/2000/svg"
  xmlns:xlink="http://www.w3.org/1999/xlink">
  <title>编组备份 18</title>
  <g id="页面-1备份" stroke="none" stroke-width="1" fill="none" fill-rule="evenodd">
    <g id="0810功能系统改版2" transform="translate(-665.000000, -533.000000)">
      <g id="编组-7" transform="translate(110.500000, 68.000000)">
        <g id="编组-3备份" transform="translate(0.000000, 348.000000)">
          <g id="编组备份-18" transform="translate(554.500000, 117.000000)">
            <rect id="矩形" x="0" y="0" width="80" height="80"></rect>
            <path d="M57.1761978,6.09429997 C62.8845375,6.23394939 67.7010867,8.63747865 71.5841542,12.8527219 C74.284269,15.784004 75.9942965,19.2294806 76.6616987,23.1339022 C77.651786,28.9263026 76.3725702,34.2339976 72.9118405,38.9983478 C72.4996714,39.5660972 72.043777,40.1019849 71.7071948,40.5273734 C72.7721911,42.2133351 73.9348065,43.7813405 74.8110049,45.4954355 C76.6986448,49.1883492 77.4162123,53.136496 76.764741,57.2615772 C75.3611287,66.1510087 70.1483412,71.7932521 61.6971784,74.4835372 C59.9102081,75.0523035 57.9351179,75.2373729 56.0451053,75.2444909 C48.3323558,75.2738105 40.6193521,75.2821149 32.9062637,75.2830471 L9.76691369,75.2773696 L9.76691369,75.2773696 C7.7409802,75.2773696 6.49193136,74.3615134 5.990956,72.379983 C5.12051979,68.937218 4.30499428,65.4802169 3.4359139,61.9042426 C3.86130231,61.8794989 4.2063584,61.8418749 4.55175346,61.8418749 C21.4439103,61.8395022 38.3367451,61.8391633 55.2292409,61.8428918 C57.0006192,61.8432307 58.7025118,61.6218932 60.2125559,60.5796068 C61.910811,59.4074744 62.965488,58.3074203 63.332668,56.8358228 C64.2306293,54.9435571 64.5403402,52.5706072 64.5403402,49.8239172 C64.5403402,42.2301879 62.510947,39.1691497 53.1531898,36.814505 C47.4032425,35.4017181 46.50129,34.4598602 46.50129,31.8108849 C46.50129,28.3377839 48.3615671,27.4547921 52.8149576,27.4547921 C56.0845354,27.4547921 60.594298,28.2789178 62.510947,28.9264451 L62.510947,21.5681802 C60.4251819,20.8029207 56.9301159,20.0965273 52.4767254,20.0965273 C43.4008283,20.0965273 38.1582293,23.3930299 38.1582293,32.0463493 C38.1582293,39.3457481 40.5822267,41.818125 48.9252874,43.8195731 C54.9007227,45.3500922 56.0281634,46.4685484 56.0281634,49.5884527 C56.0281634,52.3057214 55.0907397,53.6851622 52.4714344,54.2126471 L35.0465098,54.2804688 C23.8842727,54.2248802 17.9375348,54.1880471 17.206296,54.1699695 C15.5257576,54.128617 14.8302221,53.1428712 14.4333059,51.4670781 C13.4459303,47.2992885 12.3392425,45.6181371 11.3440709,41.4517034 C10.4400781,37.6655771 9.56252388,33.8733495 8.66192068,30.0865453 C7.66403743,25.8909614 6.64886748,21.699445 5.64928945,17.5045391 C4.76021073,13.7736624 3.88197856,10.0400741 3.00239057,6.3068247 C2.9908661,6.25767624 3.02306682,6.19802017 3.05492858,6.04989688 L3.85791276,6.04989688 C7.38304381,6.04989688 10.9081749,6.0482021 14.4333059,6.05057479 C16.3039981,6.05193061 17.7364215,7.15116138 18.168928,8.96829864 C19.4589904,14.3892045 20.7202416,19.8165505 22.0130156,25.2364395 C22.8831128,28.8835943 23.7881225,32.5219363 24.7287223,36.3744978 C25.3517214,33.8380982 25.9333681,31.5050716 26.4967111,29.1676385 C27.2708841,25.9557018 28.0338716,22.7407145 28.7971981,19.5260661 C29.6252649,16.0402539 30.4679068,12.5574922 31.2647898,9.06422288 C31.6708578,7.28504857 33.1015865,6.05260852 34.9265197,6.05159165 C42.343531,6.04786315 49.7635929,5.91329805 57.1761978,6.09429997 Z" id="形状结合" fill="#ffffff"></path>
          </g>
        </g>
      </g>
    </g>
  </g>
</svg>
