<?xml version="1.0" encoding="UTF-8"?>
<svg width="256px" height="256px" viewBox="0 0 256 256" version="1.1"
  xmlns="http://www.w3.org/2000/svg"
  xmlns:xlink="http://www.w3.org/1999/xlink">
  <title>编组备份 18</title>
  <g id="页面-1备份" stroke="none" stroke-width="1" fill="none" fill-rule="evenodd">
    <g id="画板" transform="translate(-553.000000, -156.000000)">
      <g id="编组备份-18" transform="translate(553.000000, 156.000000)">
        <rect id="矩形" x="0" y="0" width="256" height="256"></rect>
        <path d="M182.963833,19.5017599 C201.23052,19.9486381 216.643478,27.6399317 229.069293,41.1287101 C237.709661,50.5088127 243.181749,61.5343379 245.317436,74.028487 C248.485715,92.5641684 244.392225,109.548792 233.31789,124.794713 C231.998948,126.611511 230.540086,128.326352 229.463023,129.687595 C232.871012,135.082672 236.591381,140.10029 239.395216,145.585393 C245.435663,157.402717 247.731879,170.036787 245.647171,183.237047 C241.155612,211.683228 224.474692,229.738407 197.430971,238.347319 C191.712666,240.167371 185.392377,240.759593 179.344337,240.782371 C129.98274,240.970016 80.6178898,240.888667 31.2541238,240.887583 C24.7711366,240.887583 20.7741803,237.956843 19.1710592,231.615946 C16.3856633,220.599098 13.7759817,209.536694 10.9949245,198.093576 C12.3561674,198.014396 13.4603469,197.894 14.5656111,197.894 C68.620513,197.886407 122.677584,197.885322 176.733571,197.897254 C182.401981,197.898338 187.848038,197.190058 192.680179,193.854742 C198.114833,190.103754 201.489857,186.583436 202.664692,181.874014 C205.538018,175.81935 206.529089,168.225924 206.529089,159.436535 C206.529089,135.136601 200.035031,125.341279 170.090207,117.806416 C151.690376,113.285498 148.804128,110.271553 148.804128,101.794832 C148.804128,90.6809084 154.757015,87.8553347 169.007864,87.8553347 C179.470513,87.8553347 193.901753,90.4925368 200.035031,92.5646242 L200.035031,69.0181767 C193.360582,66.5693462 182.176371,64.3088872 167.925521,64.3088872 C138.88265,64.3088872 122.106334,74.8576957 122.106334,102.548318 C122.106334,125.906394 129.863125,133.818 156.56092,140.222634 C175.682313,145.120295 179.290123,148.699355 179.290123,158.683049 C179.290123,167.377021 176.291255,171.791212 167.912312,173.479721 L112.148831,173.6975 C76.4296725,173.519617 57.4001112,173.401751 55.0601473,173.343902 C49.6824243,173.211574 47.4567108,170.057188 46.1865789,164.69465 C43.0269769,151.357723 39.485576,145.978039 36.3010268,132.645451 C33.40825,120.529847 30.6000764,108.394719 27.7181462,96.2769449 C24.5249198,82.8510766 21.2763759,69.4382241 18.0777262,56.014525 C15.2326743,44.0757196 12.4223314,32.128237 9.60764982,20.181839 C9.57077152,20.024564 9.67381382,19.8336646 9.77577145,19.35967 L12.3453208,19.35967 C23.6257402,19.35967 34.9061596,19.3542467 46.1865789,19.3618393 C52.1727938,19.3661779 56.7565488,22.8837164 58.1405695,28.6985557 C62.2687691,46.0454544 66.304773,63.4129616 70.4416499,80.7566064 C73.2259611,92.4275018 76.1219918,104.070196 79.1319114,116.398393 C81.1255086,108.281914 82.9867778,100.816229 84.7894756,93.3364433 C87.2668292,83.0582458 89.7083892,72.7702864 92.1510339,62.4834117 C94.8008478,51.3288124 97.4973019,40.183975 100.047327,29.0055132 C101.346745,23.3121554 105.925077,19.3683473 111.764863,19.3650933 C135.499299,19.3531621 159.243497,18.9225538 182.963833,19.5017599 Z" id="形状结合" fill="#98ffed"></path>
      </g>
    </g>
  </g>
</svg>
