<?xml version="1.0" encoding="UTF-8"?>
<svg width="256px" height="256px" viewBox="0 0 256 256" version="1.1"
  xmlns="http://www.w3.org/2000/svg"
  xmlns:xlink="http://www.w3.org/1999/xlink">
  <title>编组备份</title>
  <g id="页面-1备份" stroke="none" stroke-width="1" fill="none" fill-rule="evenodd">
    <g id="画板" transform="translate(-1025.000000, -1057.000000)">
      <g id="编组备份" transform="translate(1025.000000, 1057.000000)">
        <rect id="矩形" x="0" y="0" width="256" height="256"></rect>
        <path d="M133.501648,9.1233246 C135.902412,16.1539698 132.13077,23.8677499 125.101277,26.2685142 L38.1807071,55.9267084 C34.0657695,57.2987383 31.4945094,61.413676 32.0094526,65.8707571 L46.2389347,181.765234 C46.5822302,184.67979 48.2964035,187.25105 50.8676636,188.794728 L121.157987,227.883179 C123.900895,229.426857 127.330394,229.426857 130.073301,227.883179 L206.192736,186.223468 C208.763996,184.85259 210.650969,182.109682 210.993113,179.193974 C211.850199,171.822338 218.537549,166.507018 225.909186,167.364105 C233.27967,168.221191 238.59499,174.907389 237.739055,182.279026 C236.367026,193.7656 229.337532,204.051792 219.222988,209.710407 L143.103553,251.370119 C137.788234,254.456322 131.787475,256 125.787868,256 C119.787109,256 113.787503,254.456322 108.128887,251.370119 L37.8385636,212.281667 C27.7228672,206.624204 20.8661738,196.50966 19.4941439,185.021933 L5.26466186,69.1286081 C3.20719304,52.1562183 13.3228894,36.0397631 29.4370406,30.3822998 L116.357611,0.722953547 C123.387104,-1.67665875 131.102036,2.09383143 133.501648,9.1233246 Z M173.103891,12.8972708 L227.450559,32.2692729 C243.565862,37.9267362 253.338263,53.6998959 251.281947,70.6722857 L243.223719,137.362615 C242.53828,144.048813 236.709169,149.191333 230.022971,149.191333 C229.50918,149.191333 228.994237,149.191333 228.308798,149.020837 C220.937161,148.16375 215.621842,141.477553 216.478928,134.105916 L224.536004,67.4155867 C225.050947,63.1290013 222.479687,59.0140637 218.536397,57.6431858 L164.189729,38.2711837 C157.159084,35.6999236 153.559089,28.1566393 155.959854,21.1271461 C158.531114,14.0976529 166.074398,10.4976585 173.103891,12.8972708 Z M155.002633,73.5984966 C163.889116,73.8163229 171.3873,77.5653674 177.432282,84.1403382 C181.635697,88.7125758 184.29779,94.0868583 185.336771,100.177007 C186.878094,109.21204 184.886669,117.491026 179.499163,124.922498 C178.857517,125.808079 178.147802,126.643961 177.623826,127.307485 C179.281764,129.937262 181.09167,132.383049 182.455696,135.056709 C185.394287,140.816946 186.511364,146.975297 185.497183,153.409632 C183.312103,167.27544 175.197074,176.076257 162.040689,180.272586 C159.258816,181.159752 156.184085,181.448425 153.2418,181.459528 C138.833572,181.514407 124.424775,181.522084 110.015863,181.51933 L81.1980234,181.510812 L81.1980234,181.510812 C78.0441426,181.510812 76.0996804,180.082252 75.3197848,176.991445 C73.9647295,171.621392 72.6951566,166.229133 71.3422119,160.6513 C72.0044372,160.612704 72.5416047,160.554018 73.0793,160.554018 C96.9783355,160.550655 120.878243,160.549911 144.777833,160.554169 C147.237976,160.715142 149.434798,160.712041 151.394313,160.556104 C151.585707,160.555519 151.778703,160.555561 151.971699,160.555604 C154.7293,160.556133 157.378729,160.210889 159.729497,158.585122 C161.607681,157.28626 162.980213,156.04414 163.822579,154.610661 C165.967001,151.423318 166.663453,147.099971 166.663453,141.931173 C166.663453,130.043518 163.505371,125.251595 148.943103,121.565501 C139.995203,119.353844 138.591611,117.879406 138.591611,113.73255 C138.591611,108.295561 141.48652,106.913275 148.416756,106.913275 C153.504777,106.913275 160.522738,108.203408 163.505371,109.217084 L163.505371,97.6980391 C160.259564,96.5000584 154.820645,95.3942301 147.890409,95.3942301 C133.766763,95.3942301 125.608384,100.554762 125.608384,114.10116 C125.608384,125.528053 129.380538,129.398452 142.363765,132.531632 C151.662562,134.927593 153.417053,136.678488 153.417053,141.562564 C153.417053,145.578764 152.116654,147.728048 148.540816,148.650576 L120.552145,148.759675 C103.175283,148.672968 93.9176733,148.615515 92.7793143,148.587317 C90.1631287,148.522815 89.0803509,146.985241 88.4624498,144.371325 C86.9253485,137.870373 85.2025075,135.2481 83.6532697,128.749262 C82.2459751,122.843632 80.8798387,116.928484 79.4778207,111.021796 C77.9243616,104.47749 76.3439914,97.939529 74.7878939,91.3962805 C73.4038168,85.5768287 72.036625,79.7531472 70.6673226,73.9299944 C70.6493818,73.8533323 70.6995104,73.7602802 70.7491113,73.5292363 L71.9991605,73.5292363 C77.4869236,73.5292363 82.9746867,73.5265928 88.4624498,73.5302937 C91.374658,73.5324085 93.6045894,75.2469977 94.2778957,78.0813832 C96.286206,86.5369563 98.2496643,95.0025748 100.262196,103.456562 C101.616724,109.145424 103.025601,114.820539 104.489884,120.829796 C105.459741,116.873499 106.365222,113.234425 107.242208,109.588478 C108.447406,104.578473 109.63519,99.5637096 110.823502,94.5494749 C112.112598,89.1122765 113.424385,83.6798365 114.664936,78.2310066 C115.297084,75.455836 117.524377,73.533466 120.36535,73.5318798 C131.911814,73.5260641 143.463028,73.3161684 155.002633,73.5984966 Z" id="形状结合" fill="#FFFFFF" fill-rule="nonzero"></path>
      </g>
    </g>
  </g>
</svg>
