<?xml version="1.0" encoding="UTF-8"?>
<svg width="74px" height="72px" viewBox="0 0 74 72" version="1.1"
  xmlns="http://www.w3.org/2000/svg"
  xmlns:xlink="http://www.w3.org/1999/xlink">
  <title>编组备份 18</title>
  <g id="页面-1备份" stroke="none" stroke-width="1" fill="none" fill-rule="evenodd">
    <g id="功能系统-展开" transform="translate(-1154.000000, -203.000000)" fill="#FFFFFF">
      <g id="03" transform="translate(985.000000, 72.000000)">
        <g id="编组-48备份-19" transform="translate(136.000000, 100.000000)">
          <g id="编组-53备份" transform="translate(33.000000, 31.000000)">
            <path d="M73.9163788,52.3501538 C71.6263986,51.8210895 69.9407554,52.845572 68.4768169,54.3154011 C67.6439047,55.1512538 66.9396816,56.1224854 66.2256813,57.0698734 C65.9646035,57.4164013 65.7365567,57.6018519 65.2767638,57.6000112 C60.7522956,57.5811874 56.2275632,57.5936391 51.7028307,57.5766836 C51.4597218,57.5758889 51.1143486,57.4635587 50.9893589,57.2826119 C49.4395396,55.0368042 47.9214302,52.7682126 46.3795384,50.4821357 C47.5668083,49.6982092 48.7524927,48.9561415 49.8956331,48.1526103 C52.6572974,46.2114716 55.3048063,44.1373383 57.2190247,41.2827225 C57.8238903,40.3809024 58.274963,39.4075513 58.380134,38.1287364 C58.1121857,38.3512772 57.9420095,38.4890406 57.7755327,38.6313078 C56.6186514,39.6205546 55.4630914,40.6683509 53.933355,40.9682512 C53.0779816,41.1359516 52.1393698,41.0866747 51.2726337,40.9359298 C49.9683015,40.7086202 48.8032285,40.8771154 47.6825493,41.5831526 C47.0155853,42.0033309 46.3150617,42.3805905 45.5984189,42.7077785 C44.3419158,43.2816159 43.1699723,43.0826538 42.2366455,42.0544623 C41.3654171,41.0948875 40.5319764,40.0921292 39.7685615,39.0445978 C39.0083177,38.0015703 39.167924,37.1326014 40.1744477,36.3420517 C44.3593562,33.0545411 48.524446,29.7402726 52.7563908,26.5147555 C54.6164382,25.0971176 55.4654696,23.3491125 55.2009565,21.0288597 C55.1169254,20.2928854 55.2789099,20.1662491 55.9987237,20.3924989 C57.443372,20.8465882 58.6285279,21.7123779 59.2941707,23.0651081 C60.1252332,24.7537689 61.5421353,25.5448485 63.2232863,25.4431156 C66.6495364,25.2356757 68.5817237,27.201188 70.1661596,29.7940533 C71.7754349,32.4274529 72.5578756,35.3700252 73.1067204,38.3727365 C73.922985,42.8405082 74.0947467,47.3559672 73.9573373,51.8881167 C73.9536379,52.0166075 73.9351404,52.1450983 73.9163788,52.3501538 M58.2770382,58.2551819 C62.0991732,58.2545562 65.9213082,58.2542838 69.7431773,58.2548825 C70.9763472,58.2551819 71.3756112,58.6997221 71.3780052,60.0761506 C71.3801332,61.2732661 71.3817292,62.4703817 71.3793352,63.6671979 C71.3766752,64.9726795 70.9478853,65.4516454 69.7684472,65.4534415 C67.5593281,65.4567344 65.3499431,65.4516454 63.140292,65.4516454 C57.7277509,65.4510467 52.3146777,65.4525435 46.9018706,65.4510467 C45.5934231,65.450448 45.193361,65.0011181 45.1907011,63.5447622 C45.1883071,62.3727924 45.1843171,61.2005232 45.1864451,60.0285533 C45.1888391,58.7601916 45.6290669,58.2572773 46.7443993,58.2566786 C50.5886123,58.2539844 54.4328252,58.2554812 58.2770382,58.2551819 M57.3052061,71.9979123 C52.5052488,71.9979123 47.7052915,71.9987777 42.905068,71.9972633 C41.7285688,71.9968307 41.2558396,71.6290678 41.2566372,70.7273997 C41.2574367,69.7629956 41.7221805,69.3818202 42.9063989,69.3818202 C52.4623944,69.3818202 62.0183899,69.3822529 71.5741192,69.3833345 C72.9124537,69.3835509 73.4663665,69.8882513 73.3231637,70.9712049 C73.2371887,71.6210635 72.7748405,71.9875284 71.9709881,71.9933694 C70.3784552,72.0050513 68.7856562,71.997696 67.1928572,71.9979123 C63.8973284,71.9981287 60.6012672,71.9979123 57.3052061,71.9979123 M57.6391077,66.1099951 C61.9568831,66.1106506 66.2746585,66.108684 70.5926937,66.1119617 C71.5998369,66.1128358 72.0298735,66.4902052 72.0353982,67.3500481 C72.0415663,68.3053805 71.6198446,68.7225191 70.5960717,68.7229561 C61.9605209,68.7277633 53.3247103,68.7282004 44.6894193,68.7260153 C43.6373237,68.7255782 43.2145627,68.3272317 43.2212389,67.3845729 C43.2275547,66.4744724 43.640182,66.1106506 44.6857816,66.1102136 C49.003557,66.108247 53.3213323,66.1093396 57.6391077,66.1099951 M23.4559448,34.6909382 C23.4559448,35.212154 23.4638873,35.7311152 23.4548101,36.2497006 C23.3727371,41.0747994 23.43363,45.8942614 24.7407466,50.5870834 C25.5535341,53.504314 26.8610289,56.1137756 29.6738258,57.7078619 C30.7455836,58.3150972 30.7925459,59.3972924 30.7766435,60.5180423 L30.7706539,60.8727359 L30.7706539,60.8727359 L4.5840708,60.8727359 L4.59153944,60.7143574 L4.59153944,60.7143574 L4.60115128,60.3945901 C4.62621225,59.3781748 4.63734776,58.3415405 5.6933801,57.7424343 C8.67297052,56.0525224 9.95588125,53.2514097 10.7762331,50.174094 C11.9717758,45.6905851 12.0288865,41.0939645 11.9456788,36.4928345 C11.9358452,35.9614723 11.9381145,35.4297344 11.9411402,34.8983723 C11.9415184,34.8446348 11.9880391,34.7908974 12.0341815,34.6909382 L23.4559448,34.6909382 Z M25.0405889,32.0729122 C25.7006637,32.0660602 26.1982586,32.284798 26.1946903,33.3979893 C26.1906423,34.5380615 25.6437232,34.6924957 25.0115746,34.6909382 C20.1103375,34.6809 15.2094631,34.6756292 10.308226,34.6872249 C9.65721807,34.6888062 9.15708443,34.5074909 9.16832747,33.3574042 C9.1795705,32.2036278 9.69529931,32.0686956 10.3372402,32.0744934 C12.7726263,32.0971578 15.208375,32.0839809 17.6437611,32.0834538 C20.1092494,32.0829267 22.5747378,32.098212 25.0405889,32.0729122 Z M2.41766444,71.9982697 C0.554343048,71.9982697 0.00691005454,71.4006554 0.00434853653,69.3568309 C0.0025188808,67.7234063 -0.00626346668,66.0899817 0.00800784798,64.4565572 C0.0219132315,62.8492935 0.627529277,62.1875032 2.08613082,62.1850506 C6.27640836,62.1789191 10.4666859,62.1834155 14.6569635,62.1834155 C21.0640519,62.1838243 27.4711403,62.182598 33.8778628,62.1858681 C35.4279471,62.1866856 36.0006294,62.8333517 36.0094117,64.5943109 C36.018194,66.261663 36.0222193,67.9294238 36.0101436,69.5967759 C35.9984338,71.3233988 35.3844013,71.9982697 33.8452949,71.9986785 C28.561981,72.001131 23.2783012,71.999496 17.9949874,71.9990872 C12.8027903,71.9982697 7.61022739,71.9982697 2.41766444,71.9982697 Z M13.8871085,7.85043092 C12.6299611,7.82791253 11.8398188,7.09461203 11.8398188,5.96578689 C11.8394421,4.90270092 12.6341039,4.16104682 13.8355119,4.12944843 C14.5461881,4.11092524 15.2583707,4.12617963 16.0571753,4.12617963 C16.0571753,3.37835114 16.0436171,2.71878021 16.0601882,2.06029887 C16.091824,0.802174584 16.882343,-0.00776108711 18.0483491,5.60856445e-05 C19.1940178,0.00785650655 19.9593034,0.841763368 19.9739915,2.10787805 C19.9811472,2.7373034 19.9751213,3.36636554 19.9751213,4.10947244 C20.7309915,4.10947244 21.408902,4.09058605 22.0849294,4.11346764 C23.421543,4.15850442 24.2320226,4.88853612 24.2357888,6.02171966 C24.239555,7.09352243 23.3405703,7.83590293 22.0129956,7.85006772 C21.363708,7.85696852 20.7144204,7.85115732 20.1299109,7.85115732 C19.4674417,9.30359353 20.6040716,10.1563868 21.1279458,11.1838792 C21.1855682,11.2968343 21.5196274,11.2866647 21.72752,11.3175367 C23.2972594,11.5481686 24.9042839,11.6422374 26.4299591,12.0337668 C28.8301389,12.6504802 29.410129,14.1163548 28.2060846,16.2258195 C27.6803274,17.1479839 27.0125855,17.9946028 26.4122581,18.8775416 C24.9189719,21.0734479 24.2335291,23.5337637 23.9054957,26.1818539 L12.3433556,26.1818539 C11.8175984,24.4341362 11.3950341,22.6784281 10.7476296,21.0037136 C10.3393769,19.946802 9.58840267,19.0148312 9.00464641,18.0196636 C8.45290259,17.0793392 7.79984881,16.1731555 7.4062841,15.1725399 C6.90952636,13.9100573 7.3283244,12.9355921 8.63292549,12.4347395 C9.8335803,11.9738388 11.1457137,11.7827957 12.4111467,11.4842454 C12.5900397,11.4417511 12.7851273,11.4679015 12.9723059,11.4562791 C15.3811479,11.3066407 16.220627,10.3427083 15.99654,7.85261012 C15.2519683,7.85261012 14.5695384,7.86277972 13.8871085,7.85043092 Z M24.9530609,27.4911976 C25.8281479,27.4819855 26.2255722,27.7225834 26.1916687,28.3622811 C26.1634158,28.9017297 26.2003329,29.4430749 26.1939289,29.9833364 C26.1879016,30.4981291 25.8594144,30.7652795 25.1011062,30.7636685 C20.5731058,30.7552546 16.0458589,30.7568802 11.5182352,30.7606734 C10.8186931,30.7612153 10.4796581,30.5301005 10.484932,30.0239779 C10.4902059,29.438198 10.4905826,28.8521471 10.4781513,28.2663671 C10.4668501,27.7315245 10.8032482,27.4922814 11.5577893,27.4968874 C13.8372344,27.5101637 16.1166795,27.5014935 18.3961246,27.5014935 C20.5817701,27.499055 22.7677922,27.5147697 24.9530609,27.4911976 Z" id="形状结合"></path>
          </g>
        </g>
      </g>
    </g>
  </g>
</svg>
