<?xml version="1.0" encoding="UTF-8"?>
<svg width="616px" height="223px" viewBox="0 0 616 223" version="1.1"
  xmlns="http://www.w3.org/2000/svg"
  xmlns:xlink="http://www.w3.org/1999/xlink">
  <title>v4</title>
  <g id="页面-1备份" stroke="none" stroke-width="1" fill="none" fill-rule="evenodd">
    <g id="画板备份" transform="translate(-1588.000000, -249.000000)" fill="#98ffed" fill-rule="nonzero">
      <g id="v4" transform="translate(1588.000000, 249.202565)">
        <path d="M111.546742,7.91956481 C113.630742,14.0225648 110.356742,20.7185648 104.254742,22.8025648 L28.8027416,48.5475648 C25.2307416,49.7385648 22.9987416,53.3105648 23.4457416,57.1795648 L35.7977416,157.782565 C36.0957416,160.312565 37.5837416,162.544565 39.8157416,163.884565 L100.831742,197.815565 C103.212742,199.155565 106.189742,199.155565 108.570742,197.815565 L174.646742,161.652565 C176.878742,160.462565 178.516742,158.081565 178.813742,155.550565 C179.557742,149.151565 185.362742,144.537565 191.761742,145.281565 C198.159742,146.025565 202.773742,151.829565 202.030742,158.228565 C200.839742,168.199565 194.737742,177.128565 185.957742,182.040565 L119.881742,218.203565 C115.267742,220.882565 110.058742,222.222565 104.850742,222.222565 C99.6417416,222.222565 94.4337416,220.882565 89.5217416,218.203565 L28.5057416,184.272565 C19.7247416,179.361565 13.7727416,170.581565 12.5817416,160.609565 L0.229741556,60.0075648 C-1.55625844,45.2745648 7.22474156,31.2845648 21.2127416,26.3735648 L96.6647416,0.62756481 C102.766742,-1.45543519 109.463742,1.81756481 111.546742,7.91956481 Z M145.923742,11.1955648 L193.099742,28.0115648 C207.088742,32.9225648 215.571742,46.6145648 213.786742,61.3475648 L206.791742,119.238565 C206.196742,125.042565 201.136742,129.506565 195.332742,129.506565 C194.886742,129.506565 194.439742,129.506565 193.844742,129.358565 C187.445742,128.614565 182.831742,122.810565 183.575742,116.411565 L190.569742,58.5205648 C191.016742,54.7995648 188.784742,51.2275648 185.361742,50.0375648 L138.185742,33.2215648 C132.082742,30.9895648 128.957742,24.4415648 131.041742,18.3395648 C133.273742,12.2375648 139.821742,9.11256481 145.923742,11.1955648 Z M130.21082,63.8876824 C137.924792,64.076768 144.433643,67.3311519 149.681031,73.0386006 C153.329835,77.007563 155.640683,81.672746 156.542578,86.9593415 C157.880533,94.8022645 156.151863,101.988895 151.475202,108.439836 C150.918216,109.20857 150.302143,109.934163 149.847302,110.51014 C151.286486,112.792936 152.857588,114.916019 154.04164,117.236907 C156.592505,122.23712 157.562191,127.58292 156.681824,133.168289 C154.785051,145.204599 147.740743,152.844209 136.320253,156.486861 C133.905428,157.256972 131.236387,157.507556 128.682316,157.517194 C107.837047,157.596592 86.9904045,157.562171 66.1442195,157.561712 C63.4064715,157.561712 61.7185677,156.32164 61.041574,153.638644 C59.8653088,148.977132 58.7632473,144.296345 57.5888144,139.454468 C58.1636636,139.420965 58.6299556,139.370022 59.0967057,139.370022 C79.8386808,139.367103 100.581412,139.366457 121.323869,139.370151 C123.462773,139.509801 125.372156,139.507426 127.075114,139.37211 C127.242468,139.371325 127.411132,139.371362 127.579797,139.371399 C129.973551,139.371858 132.273406,139.072166 134.314006,137.660908 C135.947402,136.53133 137.140233,135.45119 137.8711,134.203922 C139.729495,131.437964 140.333075,127.687503 140.333075,123.204333 C140.333075,112.885173 137.59168,108.725511 124.950803,105.525771 C117.183517,103.605927 115.965119,102.326031 115.965119,98.7263242 C115.965119,94.0067081 118.478064,92.8068057 124.493903,92.8068057 C128.910595,92.8068057 135.002584,93.9267146 137.59168,94.8066431 L137.59168,84.8074564 C134.774135,83.767541 130.052843,82.807619 124.037004,82.807619 C111.776876,82.807619 104.694939,87.2872547 104.694939,99.0462982 C104.694939,108.965491 107.969383,112.325218 119.239563,115.044997 C127.311448,117.124828 128.834446,118.644704 128.834446,122.884359 C128.834446,126.370162 127.705941,128.235829 124.602896,129.036822 L100.305836,129.131862 C85.2217316,129.056594 77.1855993,129.006722 76.1974389,128.982245 C73.926441,128.926254 72.9865282,127.591552 72.450155,125.322524 C71.1158635,119.679328 69.6203395,117.403045 68.275513,111.761685 C67.0539012,106.635261 65.8680171,101.500577 64.6509857,96.3732356 C63.3024948,90.6924058 61.9306436,85.0170833 60.5798624,79.3371714 C59.3784047,74.2855561 58.1916045,69.2302692 57.0029721,64.1754413 C56.9873984,64.1088942 57.0309129,64.0281198 57.0739694,63.8275605 L58.1590831,63.8275605 C62.9227737,63.8275605 67.6864643,63.8252658 72.450155,63.8284784 C74.9781173,63.8303142 76.9138247,65.3186751 77.4982929,67.7790829 C79.2416204,75.1190015 80.9460139,82.4676399 82.6930059,89.8061816 C83.868813,94.7444373 85.0917989,99.6707604 86.3628798,104.887137 C87.2047705,101.452847 87.9907795,98.2939233 88.7520539,95.1290338 C89.7982336,90.7800644 90.8292978,86.4269645 91.8608201,82.0743235 C92.9798293,77.3545259 94.1185346,72.6388589 95.1954035,67.9089646 C95.744144,65.4999586 97.6775611,63.831232 100.143687,63.8298552 C110.166675,63.8248068 120.193786,63.6426054 130.21082,63.8876824 Z" id="形状结合"></path>
        <g id="Bydk" transform="translate(244.669742, 7.240000)">
          <path d="M153.9,64.44 C154.86,64.44 156.06,64.53 157.5,64.71 C158.94,64.89 160.44,65.22 162,65.7 C163.56,66.18 165.06,66.75 166.5,67.41 C167.94,68.07 169.2,68.94 170.28,70.02 C168.96,71.22 166.08,75.24 161.64,82.08 C157.2,88.92 152.28,98.76 146.88,111.6 C146.28,112.92 145.56,114.84 144.72,117.36 C143.88,119.88 143.07,122.52 142.29,125.28 C141.51,128.04 140.82,130.74 140.22,133.38 C139.62,136.02 139.32,138.12 139.32,139.68 C139.32,140.64 139.47,141.36 139.77,141.84 C140.07,142.32 140.34,142.68 140.58,142.92 C142.74,142.56 145.62,140.79 149.22,137.61 C152.82,134.43 156.9,129.48 161.46,122.76 C164.34,118.44 166.98,114.15 169.38,109.89 C171.78,105.63 174.15,101.34 176.49,97.02 C178.83,92.7 181.26,88.26 183.78,83.7 C186.3,79.14 189,74.46 191.88,69.66 C193.44,69.66 195.12,69.84 196.92,70.2 C198.72,70.56 200.46,71.01 202.14,71.55 C203.82,72.09 205.29,72.69 206.55,73.35 C207.81,74.01 208.74,74.7 209.34,75.42 C205.62,83.34 202.14,91.08 198.9,98.64 C195.66,106.2 192.78,113.94 190.26,121.86 C187.5,130.62 184.74,138.6 181.98,145.8 C179.22,153 176.28,159.63 173.16,165.69 C170.04,171.75 166.68,177.33 163.08,182.43 C159.48,187.53 155.52,192.36 151.2,196.92 C145.68,202.68 139.98,207.09 134.1,210.15 C128.22,213.21 122.34,214.74 116.46,214.74 C113.46,214.74 110.49,214.41 107.55,213.75 C104.61,213.09 101.85,212.19 99.27,211.05 C96.69,209.91 94.41,208.59 92.43,207.09 C90.45,205.59 89.04,204 88.2,202.32 C88.2,200.88 89.04,199.62 90.72,198.54 C92.16,199.86 93.36,200.88 94.32,201.6 C95.28,202.32 96.21,202.92 97.11,203.4 C98.01,203.88 98.97,204.18 99.99,204.3 C101.01,204.42 102.18,204.48 103.5,204.48 C110.34,204.48 117.03,202.47 123.57,198.45 C130.11,194.43 136.29,188.73 142.11,181.35 C147.93,173.97 153.24,165.03 158.04,154.53 C162.84,144.03 166.92,132.3 170.28,119.34 C168.72,121.74 166.8,124.68 164.52,128.16 C162.24,131.64 159.72,135.09 156.96,138.51 C154.2,141.93 151.35,145.02 148.41,147.78 C145.47,150.54 142.62,152.4 139.86,153.36 C137.94,153.24 135.93,152.85 133.83,152.19 C131.73,151.53 129.75,150.6 127.89,149.4 C126.03,148.2 124.38,146.76 122.94,145.08 C121.5,143.4 120.54,141.48 120.06,139.32 C120.06,135.84 120.18,133.05 120.42,130.95 C120.66,128.85 121.08,126.54 121.68,124.02 C122.76,119.46 124.35,114.3 126.45,108.54 C128.55,102.78 131.01,97.11 133.83,91.53 C136.65,85.95 139.77,80.73 143.19,75.87 C146.61,71.01 150.18,67.2 153.9,64.44 Z M71.82,18 C86.22,18 97.5,20.88 105.66,26.64 C113.82,32.4 117.9,40.38 117.9,50.58 C117.9,58.02 115.86,64.65 111.78,70.47 C107.7,76.29 102.12,81.12 95.04,84.96 C99.6,88.08 103.23,91.89 105.93,96.39 C108.63,100.89 109.98,105.84 109.98,111.24 C109.98,117.72 108.03,124.11 104.13,130.41 C100.23,136.71 95.04,142.29 88.56,147.15 C82.08,152.01 74.7,155.94 66.42,158.94 C58.14,161.94 49.68,163.44 41.04,163.44 C31.68,163.44 23.49,161.67 16.47,158.13 C9.45,154.59 3.96,149.58 0,143.1 C1.2,139.5 2.79,135.03 4.77,129.69 C6.75,124.35 8.94,118.71 11.34,112.77 C13.74,106.83 16.17,100.92 18.63,95.04 C21.09,89.16 23.4,83.88 25.56,79.2 C30.12,69 34.2,60.54 37.8,53.82 C41.4,47.1 44.7,41.76 47.7,37.8 C41.1,39.84 35.1,42.15 29.7,44.73 C24.3,47.31 20.34,49.8 17.82,52.2 C16.74,51.48 15.63,50.4 14.49,48.96 C13.35,47.52 12.27,45.93 11.25,44.19 C10.23,42.45 9.39,40.68 8.73,38.88 C8.07,37.08 7.68,35.46 7.56,34.02 C10.68,31.86 14.73,29.79 19.71,27.81 C24.69,25.83 30.12,24.12 36,22.68 C41.88,21.24 47.91,20.1 54.09,19.26 C60.27,18.42 66.18,18 71.82,18 Z M259.2,0.18 C262.56,3.9 265.74,8.55 268.74,14.13 C271.74,19.71 274.38,25.71 276.66,32.13 C278.94,38.55 280.71,45.18 281.97,52.02 C283.23,58.86 283.86,65.4 283.86,71.64 C283.86,77.88 283.17,84.3 281.79,90.9 C280.41,97.5 278.49,103.95 276.03,110.25 C273.57,116.55 270.72,122.52 267.48,128.16 C264.24,133.8 260.73,138.84 256.95,143.28 C253.17,147.72 249.24,151.35 245.16,154.17 C241.08,156.99 237,158.76 232.92,159.48 C224.64,158.52 218.31,155.85 213.93,151.47 C209.55,147.09 207.36,141.06 207.36,133.38 C207.36,129.3 207.99,124.86 209.25,120.06 C210.51,115.26 212.19,110.49 214.29,105.75 C216.39,101.01 218.85,96.39 221.67,91.89 C224.49,87.39 227.49,83.34 230.67,79.74 C233.85,76.14 237.06,73.08 240.3,70.56 C243.54,68.04 246.72,66.42 249.84,65.7 C252.24,65.7 255,66.42 258.12,67.86 C261.24,69.3 264,71.16 266.4,73.44 C265.8,68.64 265.05,64.11 264.15,59.85 C263.25,55.59 261.93,51.18 260.19,46.62 C258.45,42.06 256.14,37.08 253.26,31.68 C250.38,26.28 246.78,20.1 242.46,13.14 C242.82,12.06 243.63,10.8 244.89,9.36 C246.15,7.92 247.59,6.57 249.21,5.31 C250.83,4.05 252.51,2.94 254.25,1.98 C255.99,1.02 257.64,0.42 259.2,0.18 Z M266.58,76.68 C263.7,77.88 260.64,79.92 257.4,82.8 C254.16,85.68 250.92,89.01 247.68,92.79 C244.44,96.57 241.38,100.68 238.5,105.12 C235.62,109.56 233.04,114 230.76,118.44 C228.48,122.88 226.68,127.14 225.36,131.22 C224.04,135.3 223.38,138.9 223.38,142.02 C223.38,148.02 226.08,151.44 231.48,152.28 C235.68,150.84 239.88,147.66 244.08,142.74 C248.28,137.82 252.06,132.03 255.42,125.37 C258.78,118.71 261.51,111.57 263.61,103.95 C265.71,96.33 266.76,88.98 266.76,81.9 L266.76,78.12 L266.76,78.12 C266.76,77.64 266.7,77.16 266.58,76.68 Z M88.02,88.2 C78.66,92.04 68.1,93.96 56.34,93.96 L52.47,93.96 C51.57,93.96 50.52,93.84 49.32,93.6 C47.04,92.52 44.94,90.9 43.02,88.74 C40.26,94.86 37.65,100.86 35.19,106.74 C32.73,112.62 30.54,118.08 28.62,123.12 C26.7,128.16 25.14,132.54 23.94,136.26 C22.74,139.98 22.08,142.68 21.96,144.36 C23.64,145.32 25.65,146.04 27.99,146.52 C30.33,147 33.24,147.24 36.72,147.24 C44.88,147.24 52.68,146.1 60.12,143.82 C67.56,141.54 74.1,138.45 79.74,134.55 C85.38,130.65 89.88,126.18 93.24,121.14 C96.6,116.1 98.28,110.82 98.28,105.3 C98.28,97.38 94.86,91.68 88.02,88.2 Z M84.24,31.14 C81.72,31.14 79.05,31.29 76.23,31.59 C73.41,31.89 70.44,32.34 67.32,32.94 C67.8,33.42 68.19,33.93 68.49,34.47 C68.79,35.01 69.06,35.58 69.3,36.18 C68.22,37.62 66.9,39.72 65.34,42.48 C63.78,45.24 62.04,48.45 60.12,52.11 C58.2,55.77 56.19,59.82 54.09,64.26 C51.99,68.7 49.86,73.26 47.7,77.94 C49.74,77.46 52.23,77.07 55.17,76.77 C58.11,76.47 61.02,76.32 63.9,76.32 C65.46,76.32 66.99,76.38 68.49,76.5 C69.99,76.62 71.46,76.8 72.9,77.04 C78.66,76.08 83.85,74.67 88.47,72.81 C93.09,70.95 97.08,68.79 100.44,66.33 C103.8,63.87 106.38,61.14 108.18,58.14 C109.98,55.14 110.88,51.96 110.88,48.6 C110.88,42.84 108.6,38.49 104.04,35.55 C99.48,32.61 92.88,31.14 84.24,31.14 Z M288.9,132.84 C288.9,128.52 290.01,122.52 292.23,114.84 C294.45,107.16 297.36,98.76 300.96,89.64 C304.56,80.52 308.64,71.1 313.2,61.38 C317.76,51.66 322.35,42.6 326.97,34.2 C331.59,25.8 336.03,18.54 340.29,12.42 C344.55,6.3 348.18,2.16 351.18,0 C352.86,0.12 354.69,0.84 356.67,2.16 C358.65,3.48 360.48,5.07 362.16,6.93 C363.84,8.79 365.25,10.74 366.39,12.78 C367.53,14.82 368.1,16.68 368.1,18.36 C362.7,22.68 357.21,28.23 351.63,35.01 C346.05,41.79 340.74,49.23 335.7,57.33 C330.66,65.43 326.01,74.01 321.75,83.07 C317.49,92.13 313.92,101.04 311.04,109.8 C314.88,103.2 318.9,97.2 323.1,91.8 C327.3,86.4 331.5,81.78 335.7,77.94 C339.9,74.1 344.01,71.13 348.03,69.03 C352.05,66.93 355.86,65.82 359.46,65.7 C364.74,69.54 367.38,74.64 367.38,81 C367.38,84.84 366.6,88.71 365.04,92.61 C363.48,96.51 361.41,100.11 358.83,103.41 C356.25,106.71 353.31,109.53 350.01,111.87 C346.71,114.21 343.26,115.74 339.66,116.46 C340.86,120.66 342.39,124.92 344.25,129.24 C346.11,133.56 348.33,137.76 350.91,141.84 C353.49,145.92 356.43,149.7 359.73,153.18 C363.03,156.66 366.78,159.6 370.98,162 C370.38,163.2 369.48,164.4 368.28,165.6 C367.08,166.8 365.64,167.85 363.96,168.75 C362.28,169.65 360.45,170.37 358.47,170.91 C356.49,171.45 354.54,171.72 352.62,171.72 C349.38,171.72 346.35,170.1 343.53,166.86 C340.71,163.62 338.16,158.94 335.88,152.82 C334.08,147.9 332.34,142.02 330.66,135.18 C328.98,128.34 327.48,121.2 326.16,113.76 C327.84,112.68 329.94,111.09 332.46,108.99 C334.98,106.89 337.62,104.46 340.38,101.7 C350.94,91.5 356.22,82.68 356.22,75.24 C356.22,74.28 355.56,73.8 354.24,73.8 C351.84,73.92 349.02,75.06 345.78,77.22 C342.54,79.38 339.09,82.38 335.43,86.22 C331.77,90.06 328.05,94.56 324.27,99.72 C320.49,104.88 316.86,110.46 313.38,116.46 C311.94,118.86 310.62,121.62 309.42,124.74 C308.22,127.86 307.17,131.07 306.27,134.37 C305.37,137.67 304.68,140.94 304.2,144.18 C303.72,147.42 303.48,150.42 303.48,153.18 C303.48,154.86 303.66,156.24 304.02,157.32 C300.3,156.96 298.02,156 297.18,154.44 C296.22,153 295.41,151.83 294.75,150.93 C294.09,150.03 293.4,149.28 292.68,148.68 C291.6,147.84 290.7,146.04 289.98,143.28 C289.26,140.52 288.9,137.04 288.9,132.84 Z" id="形状结合"></path>
        </g>
      </g>
    </g>
  </g>
</svg>
